<?xml version="1.0" encoding="UTF-8"?>
<svg id="_Слой_1" data-name=" Слой 1" xmlns="http://www.w3.org/2000/svg" xmlns:xlink="http://www.w3.org/1999/xlink" viewBox="0 0 140 80">
  <defs>
    <style>
      .cls-1 {
        fill: none;
      }

      .cls-2 {
        fill: #690dd3;
      }

      .cls-3 {
        clip-path: url(#clippath-1);
      }

      .cls-4 {
        fill: #fff;
      }

      .cls-5 {
        clip-path: url(#clippath);
      }
    </style>
    <clipPath id="clippath">
      <rect class="cls-1" x="8" y="27.5" width="124" height="25"/>
    </clipPath>
    <clipPath id="clippath-1">
      <rect class="cls-1" x="8" y="28.33" width="124" height="23.19"/>
    </clipPath>
  </defs>
  <g class="cls-5">
    <g class="cls-3">
      <g>
        <path class="cls-2" d="M25.21,28.33h-11.57c-3.12,0-5.64,2.56-5.64,5.72v11.73c0,3.16,2.53,5.72,5.64,5.72h11.57c3.12,0,5.64-2.56,5.64-5.72v-11.73c0-3.16-2.53-5.72-5.64-5.72"/>
        <path class="cls-4" d="M20.99,45.51v-3.73h-3.13v3.73h-2.39l2.9,2.94c.58.59,1.53.59,2.11,0l2.9-2.94h-2.39ZM13.91,43.93v-8.02l-2.9,2.94c-.58.59-.58,1.55,0,2.14l2.9,2.94h0ZM17.86,34.32v3.73h3.13v-3.73h2.39l-2.9-2.94c-.58-.59-1.53-.59-2.11,0l-2.9,2.94h2.39ZM27.85,38.85l-2.9-2.94v8.02l2.9-2.94c.58-.59.58-1.55,0-2.14"/>
        <path d="M54.2,32.47v14.94h-5.31l-5.05-12.03h-.26v12.03h-3.21v-11.77h-2.14v-3.18h6.34c.7,0,1.29.37,1.58,1.05l4.61,10.98h.22v-12.03h3.21Z"/>
        <path d="M55.87,41.81c0-3.33,2.54-5.83,5.97-5.83s6.01,2.5,6.01,5.83-2.58,5.83-6.01,5.83-5.97-2.5-5.97-5.83ZM64.68,41.81c0-1.61-1.25-2.84-2.84-2.84s-2.84,1.23-2.84,2.84,1.25,2.84,2.84,2.8c1.58.04,2.84-1.2,2.84-2.8Z"/>
        <path d="M67.78,36.21h3.39l2.98,8.48h.22l2.98-8.48h3.32l-4.27,11.21h-4.39l-4.24-11.21Z"/>
        <path d="M91.71,38.97v8.44h-2.91v-1.16h-.22c-.96.9-2.25,1.38-3.69,1.38-2.43,0-3.98-1.46-3.98-3.47,0-2.24,1.58-3.44,4.35-3.44h3.43v-1.08c0-.41-.22-.64-.63-.64h-6.12v-2.8h7.04c1.66,0,2.73,1.08,2.73,2.76M88.69,42.82v-.11h-2.91c-1.25,0-1.77.49-1.77,1.27s.63,1.34,1.69,1.34c1.84,0,2.99-1.23,2.99-2.5"/>
        <path d="M107.08,37.18c0,2.91-2.06,4.71-5.2,4.71h-4.31v5.53h-3.35v-14.94h7.66c3.13,0,5.2,1.83,5.2,4.71ZM103.66,37.22c0-1.08-.77-1.76-1.95-1.76h-4.13v3.55h4.13c1.18,0,1.95-.67,1.95-1.79Z"/>
        <path d="M118.3,38.97v8.44h-2.91v-1.16h-.22c-.96.9-2.25,1.38-3.69,1.38-2.43,0-3.98-1.46-3.98-3.47,0-2.24,1.58-3.44,4.35-3.44h3.43v-1.08c0-.41-.22-.64-.63-.64h-6.12v-2.8h7.04c1.66,0,2.73,1.08,2.73,2.76M115.27,42.82v-.11h-2.91c-1.25,0-1.77.49-1.77,1.27s.63,1.34,1.69,1.34c1.84,0,2.98-1.23,2.98-2.5"/>
        <path d="M132,36.21l-4.86,12.93c-.66,1.68-1.4,2.39-2.88,2.39h-4.05v-2.88h3.5c.22,0,.37-.08.51-.3l-5.16-12.14h3.39l3.21,8.67h.26l2.87-8.67h3.21Z"/>
      </g>
    </g>
  </g>
</svg>