<svg xmlns="http://www.w3.org/2000/svg">
  <symbol id="leadforce-logo" viewBox="0 0 335 335" fill="none">
    <path fill-rule="evenodd" clip-rule="evenodd" d="M62 136H30L15 151H30H51.2525L15 187.252L25.5 198L62 161.5L62 183V198L77 183L77 136H76.5H62Z" fill="#F8B500"/>
    <path d="M307.842 183.479C305.317 183.479 303.144 182.968 301.322 181.945C299.511 180.912 298.116 179.452 297.135 177.567C296.155 175.67 295.665 173.428 295.665 170.839C295.665 168.314 296.155 166.098 297.135 164.191C298.116 162.284 299.495 160.798 301.274 159.733C303.064 158.668 305.163 158.135 307.57 158.135C309.19 158.135 310.697 158.396 312.093 158.918C313.499 159.429 314.724 160.202 315.768 161.235C316.823 162.268 317.643 163.568 318.229 165.134C318.815 166.69 319.108 168.511 319.108 170.599V172.469H298.382V168.25H312.7C312.7 167.27 312.487 166.402 312.061 165.646C311.635 164.889 311.043 164.298 310.287 163.872C309.541 163.435 308.673 163.217 307.682 163.217C306.649 163.217 305.733 163.456 304.934 163.936C304.145 164.404 303.528 165.038 303.08 165.837C302.633 166.626 302.404 167.505 302.393 168.474V172.485C302.393 173.7 302.617 174.749 303.064 175.633C303.522 176.517 304.167 177.199 304.998 177.679C305.829 178.158 306.814 178.398 307.954 178.398C308.71 178.398 309.403 178.291 310.031 178.078C310.66 177.865 311.198 177.545 311.645 177.119C312.093 176.693 312.434 176.171 312.668 175.553L318.964 175.969C318.645 177.482 317.99 178.803 316.999 179.932C316.019 181.05 314.751 181.924 313.195 182.553C311.651 183.17 309.866 183.479 307.842 183.479Z" fill="#F5F6F8"/>
    <path d="M281.335 183.479C278.821 183.479 276.658 182.947 274.847 181.881C273.047 180.805 271.662 179.314 270.692 177.407C269.734 175.5 269.254 173.305 269.254 170.823C269.254 168.309 269.739 166.104 270.708 164.207C271.688 162.3 273.079 160.814 274.879 159.749C276.68 158.673 278.821 158.135 281.303 158.135C283.444 158.135 285.319 158.524 286.928 159.301C288.537 160.079 289.81 161.171 290.747 162.577C291.685 163.984 292.202 165.635 292.297 167.531H285.873C285.692 166.306 285.213 165.321 284.435 164.575C283.668 163.819 282.661 163.44 281.415 163.44C280.36 163.44 279.439 163.728 278.65 164.303C277.873 164.868 277.266 165.694 276.829 166.78C276.392 167.867 276.174 169.183 276.174 170.727C276.174 172.293 276.387 173.625 276.813 174.722C277.25 175.82 277.862 176.656 278.65 177.231C279.439 177.806 280.36 178.094 281.415 178.094C282.193 178.094 282.891 177.934 283.508 177.615C284.137 177.295 284.654 176.832 285.058 176.224C285.474 175.607 285.746 174.866 285.873 174.003H292.297C292.191 175.878 291.68 177.529 290.763 178.957C289.858 180.374 288.606 181.482 287.008 182.281C285.41 183.08 283.519 183.479 281.335 183.479Z" fill="#F5F6F8"/>
    <path d="M252.974 183V158.455H259.574V162.737H259.83C260.277 161.214 261.028 160.063 262.083 159.285C263.138 158.497 264.352 158.103 265.727 158.103C266.068 158.103 266.435 158.124 266.829 158.167C267.223 158.21 267.57 158.268 267.868 158.343V164.383C267.548 164.287 267.106 164.202 266.542 164.127C265.977 164.053 265.46 164.016 264.992 164.016C263.99 164.016 263.095 164.234 262.307 164.671C261.529 165.097 260.911 165.694 260.453 166.461C260.006 167.228 259.782 168.112 259.782 169.113V183H252.974Z" fill="#F5F6F8"/>
    <path d="M236.467 183.479C233.985 183.479 231.838 182.952 230.027 181.897C228.227 180.832 226.836 179.351 225.856 177.455C224.876 175.548 224.386 173.337 224.386 170.823C224.386 168.288 224.876 166.072 225.856 164.175C226.836 162.268 228.227 160.788 230.027 159.733C231.838 158.668 233.985 158.135 236.467 158.135C238.949 158.135 241.091 158.668 242.891 159.733C244.702 160.788 246.098 162.268 247.078 164.175C248.058 166.072 248.548 168.288 248.548 170.823C248.548 173.337 248.058 175.548 247.078 177.455C246.098 179.351 244.702 180.832 242.891 181.897C241.091 182.952 238.949 183.479 236.467 183.479ZM236.499 178.206C237.628 178.206 238.571 177.886 239.327 177.247C240.084 176.597 240.654 175.713 241.037 174.594C241.431 173.476 241.629 172.203 241.629 170.775C241.629 169.348 241.431 168.075 241.037 166.956C240.654 165.837 240.084 164.953 239.327 164.303C238.571 163.653 237.628 163.328 236.499 163.328C235.359 163.328 234.4 163.653 233.622 164.303C232.855 164.953 232.275 165.837 231.881 166.956C231.497 168.075 231.305 169.348 231.305 170.775C231.305 172.203 231.497 173.476 231.881 174.594C232.275 175.713 232.855 176.597 233.622 177.247C234.4 177.886 235.359 178.206 236.499 178.206Z" fill="#F5F6F8"/>
    <path d="M200.983 183V150.273H222.652V155.978H207.903V163.776H221.214V169.481H207.903V183H200.983Z" fill="#F5F6F8"/>
    <path d="M181.292 183.399C179.427 183.399 177.739 182.92 176.226 181.961C174.724 180.992 173.531 179.57 172.646 177.695C171.773 175.809 171.336 173.497 171.336 170.759C171.336 167.947 171.789 165.608 172.694 163.744C173.6 161.869 174.804 160.468 176.306 159.541C177.819 158.604 179.475 158.135 181.276 158.135C182.65 158.135 183.795 158.369 184.711 158.838C185.638 159.296 186.384 159.871 186.949 160.564C187.524 161.246 187.961 161.917 188.259 162.577H188.467V150.273H195.258V183H188.547V179.069H188.259C187.939 179.751 187.487 180.427 186.901 181.098C186.325 181.759 185.574 182.308 184.647 182.744C183.731 183.181 182.613 183.399 181.292 183.399ZM183.449 177.982C184.546 177.982 185.473 177.684 186.23 177.087C186.997 176.48 187.583 175.633 187.987 174.546C188.403 173.46 188.611 172.187 188.611 170.727C188.611 169.268 188.408 168 188.003 166.924C187.598 165.848 187.013 165.017 186.246 164.431C185.478 163.845 184.546 163.552 183.449 163.552C182.33 163.552 181.388 163.856 180.621 164.463C179.853 165.07 179.273 165.912 178.879 166.988C178.484 168.064 178.287 169.31 178.287 170.727C178.287 172.155 178.484 173.417 178.879 174.515C179.283 175.601 179.864 176.453 180.621 177.071C181.388 177.679 182.33 177.982 183.449 177.982Z" fill="#F5F6F8"/>
    <path d="M153.143 183.463C151.577 183.463 150.181 183.192 148.956 182.648C147.731 182.094 146.761 181.279 146.047 180.203C145.344 179.117 144.993 177.764 144.993 176.145C144.993 174.781 145.243 173.636 145.744 172.709C146.245 171.782 146.926 171.036 147.789 170.472C148.652 169.907 149.632 169.481 150.73 169.193C151.838 168.906 152.999 168.703 154.213 168.586C155.641 168.437 156.791 168.298 157.665 168.17C158.539 168.032 159.172 167.83 159.567 167.563C159.961 167.297 160.158 166.903 160.158 166.381V166.285C160.158 165.273 159.838 164.49 159.199 163.936C158.571 163.382 157.676 163.105 156.514 163.105C155.289 163.105 154.315 163.376 153.59 163.92C152.866 164.452 152.386 165.124 152.152 165.933L145.856 165.422C146.175 163.93 146.804 162.641 147.741 161.555C148.679 160.457 149.888 159.616 151.369 159.03C152.86 158.433 154.586 158.135 156.546 158.135C157.91 158.135 159.215 158.295 160.462 158.614C161.719 158.934 162.832 159.429 163.801 160.101C164.782 160.772 165.554 161.635 166.119 162.689C166.683 163.733 166.965 164.985 166.965 166.445V183H160.509V179.596H160.318C159.924 180.363 159.396 181.04 158.736 181.626C158.075 182.201 157.282 182.654 156.355 182.984C155.428 183.304 154.357 183.463 153.143 183.463ZM155.092 178.765C156.094 178.765 156.978 178.568 157.745 178.174C158.512 177.769 159.114 177.226 159.551 176.544C159.987 175.862 160.206 175.09 160.206 174.227V171.622C159.993 171.761 159.7 171.888 159.327 172.006C158.965 172.112 158.555 172.213 158.096 172.309C157.638 172.395 157.18 172.474 156.722 172.549C156.264 172.613 155.849 172.672 155.476 172.725C154.677 172.842 153.979 173.028 153.382 173.284C152.786 173.54 152.322 173.886 151.992 174.323C151.662 174.749 151.497 175.282 151.497 175.921C151.497 176.848 151.832 177.556 152.503 178.046C153.185 178.526 154.048 178.765 155.092 178.765Z" fill="#F5F6F8"/>
    <path d="M130.435 183.479C127.91 183.479 125.737 182.968 123.915 181.945C122.104 180.912 120.708 179.452 119.728 177.567C118.748 175.67 118.258 173.428 118.258 170.839C118.258 168.314 118.748 166.098 119.728 164.191C120.708 162.284 122.088 160.798 123.867 159.733C125.657 158.668 127.756 158.135 130.163 158.135C131.783 158.135 133.29 158.396 134.686 158.918C136.092 159.429 137.317 160.202 138.361 161.235C139.416 162.268 140.236 163.568 140.822 165.134C141.408 166.69 141.701 168.511 141.701 170.599V172.469H120.975V168.25H135.293C135.293 167.27 135.08 166.402 134.654 165.646C134.228 164.889 133.636 164.298 132.88 163.872C132.134 163.435 131.266 163.217 130.275 163.217C129.242 163.217 128.326 163.456 127.527 163.936C126.738 164.404 126.12 165.038 125.673 165.837C125.225 166.626 124.996 167.505 124.986 168.474V172.485C124.986 173.7 125.209 174.749 125.657 175.633C126.115 176.517 126.759 177.199 127.59 177.679C128.421 178.158 129.407 178.398 130.547 178.398C131.303 178.398 131.996 178.291 132.624 178.078C133.253 177.865 133.791 177.545 134.238 177.119C134.686 176.693 135.027 176.171 135.261 175.553L141.557 175.969C141.237 177.482 140.582 178.803 139.592 179.932C138.611 181.05 137.344 181.924 135.788 182.553C134.243 183.17 132.459 183.479 130.435 183.479Z" fill="#F5F6F8"/>
    <path d="M93.8445 183V150.273H100.764V177.295H114.794V183H93.8445Z" fill="#F5F6F8"/>
  </symbol>
</svg>
